<svg width="23" height="23" viewBox="0 0 23 23" fill="none" xmlns="http://www.w3.org/2000/svg">
<path fill-rule="evenodd" clip-rule="evenodd" d="M0 1.87695C0 0.840339 0.840339 0 1.87695 0H20.6465C21.6831 0 22.5234 0.840339 22.5234 1.87695V20.6465C22.5234 21.6831 21.6831 22.5234 20.6465 22.5234H1.87695C0.840339 22.5234 0 21.6831 0 20.6465V1.87695ZM13.9484 7.50744C13.9484 8.99149 12.7454 10.1945 11.2613 10.1945C9.77732 10.1945 8.57422 8.99149 8.57422 7.50744C8.57422 6.02338 9.77732 4.82031 11.2613 4.82031C12.7454 4.82031 13.9484 6.02338 13.9484 7.50744ZM18.1715 11.5351L20.6465 14.5971V20.6465H1.87695V12.741L4.87256 8.84961L12.4187 18.6524L18.1715 11.5351Z" fill="#2C1E81"/>
</svg>
